<svg width="48" height="48" viewBox="0 0 48 48" fill="none" xmlns="http://www.w3.org/2000/svg">
<path d="M26.598 6.296L43.866 36.204C44.1293 36.6601 44.2679 37.1774 44.2679 37.704C44.2679 38.2306 44.1293 38.7479 43.866 39.204C43.6027 39.66 43.224 40.0387 42.768 40.302C42.3119 40.5654 41.7946 40.704 41.268 40.704H6.73201C6.20541 40.704 5.68808 40.5654 5.23204 40.302C4.77599 40.0387 4.39729 39.66 4.13399 39.204C3.87069 38.7479 3.73208 38.2306 3.73209 37.704C3.73209 37.1774 3.87071 36.6601 4.13401 36.204L21.402 6.296C22.556 4.296 25.442 4.296 26.598 6.296ZM24 9.796L8.46401 36.704H39.536L24 9.796ZM24 30C24.5304 30 25.0391 30.2107 25.4142 30.5858C25.7893 30.9609 26 31.4696 26 32C26 32.5304 25.7893 33.0391 25.4142 33.4142C25.0391 33.7893 24.5304 34 24 34C23.4696 34 22.9609 33.7893 22.5858 33.4142C22.2107 33.0391 22 32.5304 22 32C22 31.4696 22.2107 30.9609 22.5858 30.5858C22.9609 30.2107 23.4696 30 24 30ZM24 16C24.5304 16 25.0391 16.2107 25.4142 16.5858C25.7893 16.9609 26 17.4696 26 18V26C26 26.5304 25.7893 27.0391 25.4142 27.4142C25.0391 27.7893 24.5304 28 24 28C23.4696 28 22.9609 27.7893 22.5858 27.4142C22.2107 27.0391 22 26.5304 22 26V18C22 17.4696 22.2107 16.9609 22.5858 16.5858C22.9609 16.2107 23.4696 16 24 16Z" fill="black"/>
</svg>
