<svg width="48" height="48" viewBox="0 0 48 48" fill="none" xmlns="http://www.w3.org/2000/svg">
<g clip-path="url(#clip0_273_2)">
<path d="M35.4 19.4C35.7643 19.0228 35.9659 18.5176 35.9613 17.9932C35.9568 17.4688 35.7465 16.9672 35.3756 16.5964C35.0048 16.2255 34.5032 16.0152 33.9788 16.0107C33.4544 16.0061 32.9492 16.2077 32.572 16.572L21.972 27.172L15.372 20.572C14.9948 20.2077 14.4896 20.0061 13.9652 20.0107C13.4408 20.0152 12.9392 20.2255 12.5684 20.5964C12.1975 20.9672 11.9872 21.4688 11.9827 21.9932C11.9781 22.5176 12.1797 23.0228 12.544 23.4L20.544 31.4C20.9191 31.7749 21.4277 31.9856 21.958 31.9856C22.4883 31.9856 22.9969 31.7749 23.372 31.4L35.372 19.4H35.4Z" fill="#10C400"/>
<path fill-rule="evenodd" clip-rule="evenodd" d="M48 24C48 37.24 37.24 48 24 48C10.76 48 0 37.24 0 24C0 10.76 10.76 0 24 0C37.24 0 48 10.76 48 24ZM44 24C44 35.04 35.04 44 24 44C12.96 44 4 35.04 4 24C4 12.96 12.96 4 24 4C35.04 4 44 12.96 44 24Z" fill="#10C400"/>
</g>
<defs>
<clipPath id="clip0_273_2">
<rect width="48" height="48" fill="white"/>
</clipPath>
</defs>
</svg>
