<svg width="48" height="48" viewBox="0 0 48 48" fill="none" xmlns="http://www.w3.org/2000/svg">
<path d="M13.6509 43.5H34.3491C36.2053 43.5 37.6819 41.9728 37.4822 40.2131C36.1931 28.875 28.5 29.0625 28.5 24C28.5 18.9375 36.2916 19.2188 37.4812 7.78687C37.6687 6.02625 36.2053 4.5 34.3491 4.5H13.6509C11.7947 4.5 10.335 6.02625 10.5187 7.78687C11.7084 19.2188 19.5 18.8438 19.5 24C19.5 29.1562 11.8069 28.875 10.5187 40.2131C10.3181 41.9728 11.7947 43.5 13.6509 43.5Z" stroke="#FF6F00" stroke-width="2" stroke-linecap="round" stroke-linejoin="round"/>
<path d="M32.1844 40.5H15.8559C14.3934 40.5 13.9809 38.8125 15.0066 37.7662C17.4891 35.25 22.5 33.4481 22.5 30.5625V21C22.5 19.1391 18.9375 17.7188 16.7334 14.7C16.3697 14.2022 16.4062 13.5 17.3306 13.5H30.7116C31.5 13.5 31.6706 14.1966 31.3116 14.6953C29.1394 17.7188 25.5 19.1297 25.5 21V30.5625C25.5 33.4247 30.7228 34.9687 33.0375 37.7691C33.9703 38.8978 33.6441 40.5 32.1844 40.5Z" fill="#FF6F00"/>
</svg>
